# xmcd
#
# Track frame offsets:
#	150
#	11200
#	23380
#	36720
#	49610
#	62605
#	74590
#	88102
#	101715
#	111562
#	123085
#	134585
#	146682
#	160270
#	172065
#	186230
#	200640
#	212505
#	224667
#	264800
# Disc length: 3658 seconds
# Revision: 2
# Processed by: cddbd v1.5.1PL2 Copyright (c) Steve Scherf et al.
#
# Submitted via: libkcddb 0.31
#
DISCID=380e4814
DTITLE=Luiz Gonzaga - 50 Anos de Chão - Disco 02
DYEAR=1996
DGENRE=Forró
TTITLE0=Sabiá
TTITLE1=Olha Pro Céu
TTITLE2=Acauã
TTITLE3=Pau de Arara
TTITLE4=Baião da Garoa
TTITLE5=Imbalança
TTITLE6=São João na Roça
TTITLE7=São João do Carneirinho
TTITLE8=13 de Dezembro
TTITLE9=O Xote das Meninas
TTITLE10=ABC do Sertão
TTITLE11=Vozes da Seca
TTITLE12=Noites Brasileiras
TTITLE13=Riacho do Navio
TTITLE14=Forró no Escuro
TTITLE15=A Feira de Caruaru
TTITLE16=Serrote Agudo
TTITLE17=A Morte do Vaqueiro
TTITLE18=A Triste Partida
TTITLE19=Cacimba Nova
EXTD=YEAR: 1996
EXTT0=
EXTT1=
EXTT2=
EXTT3=
EXTT4=
EXTT5=
EXTT6=
EXTT7=
EXTT8=
EXTT9=
EXTT10=
EXTT11=
EXTT12=
EXTT13=
EXTT14=
EXTT15=
EXTT16=
EXTT17=
EXTT18=
EXTT19=
PLAYORDER=
